<svg width="74" height="80" viewBox="0 0 74 80" fill="none" xmlns="http://www.w3.org/2000/svg">
<path d="M1.32733 14L5.05933 5.54H5.92333L9.71533 14H8.68333L7.62733 11.588L8.07133 11.84H2.89933L3.37933 11.588L2.34733 14H1.32733ZM5.47933 6.68L3.53533 11.24L3.24733 11.024H7.71133L7.49533 11.24L5.50333 6.68H5.47933ZM10.8595 14V9.428C10.8595 9.188 10.8515 8.944 10.8355 8.696C10.8275 8.448 10.8115 8.208 10.7875 7.976H11.7235L11.8435 9.44L11.6755 9.452C11.7555 9.092 11.8955 8.796 12.0955 8.564C12.2955 8.332 12.5315 8.16 12.8035 8.048C13.0755 7.928 13.3595 7.868 13.6555 7.868C13.7755 7.868 13.8795 7.872 13.9675 7.88C14.0635 7.888 14.1515 7.908 14.2315 7.94L14.2195 8.804C14.0995 8.764 13.9875 8.74 13.8835 8.732C13.7875 8.716 13.6755 8.708 13.5475 8.708C13.1955 8.708 12.8875 8.792 12.6235 8.96C12.3675 9.128 12.1715 9.344 12.0355 9.608C11.9075 9.872 11.8435 10.152 11.8435 10.448V14H10.8595ZM18.2669 14.108C17.7229 14.108 17.2549 13.972 16.8629 13.7C16.4709 13.42 16.2069 13.04 16.0709 12.56H16.2029V14H15.2429V5.168H16.2149V9.38H16.0709C16.2069 8.916 16.4709 8.548 16.8629 8.276C17.2549 8.004 17.7229 7.868 18.2669 7.868C18.8109 7.868 19.2789 7.996 19.6709 8.252C20.0709 8.5 20.3789 8.856 20.5949 9.32C20.8189 9.784 20.9309 10.34 20.9309 10.988C20.9309 11.636 20.8189 12.192 20.5949 12.656C20.3709 13.12 20.0589 13.48 19.6589 13.736C19.2669 13.984 18.8029 14.108 18.2669 14.108ZM18.0629 13.316C18.6309 13.316 19.0869 13.12 19.4309 12.728C19.7749 12.336 19.9469 11.756 19.9469 10.988C19.9469 10.22 19.7749 9.64 19.4309 9.248C19.0869 8.848 18.6309 8.648 18.0629 8.648C17.4949 8.648 17.0389 8.848 16.6949 9.248C16.3589 9.64 16.1909 10.22 16.1909 10.988C16.1909 11.748 16.3589 12.328 16.6949 12.728C17.0389 13.12 17.4949 13.316 18.0629 13.316ZM22.4382 14V7.976H23.4102V14H22.4382ZM22.3182 6.608V5.516H23.5182V6.608H22.3182ZM27.4336 14.108C26.8416 14.108 26.3896 13.94 26.0776 13.604C25.7656 13.26 25.6096 12.744 25.6096 12.056V8.732H24.4336V7.976H25.6096V6.332L26.5816 6.056V7.976H28.3096V8.732H26.5816V11.948C26.5816 12.428 26.6616 12.772 26.8216 12.98C26.9896 13.18 27.2376 13.28 27.5656 13.28C27.7176 13.28 27.8536 13.268 27.9736 13.244C28.0936 13.212 28.2016 13.176 28.2976 13.136V13.952C28.1856 14 28.0496 14.036 27.8896 14.06C27.7376 14.092 27.5856 14.108 27.4336 14.108ZM29.4689 14V9.428C29.4689 9.188 29.4609 8.944 29.4449 8.696C29.4369 8.448 29.4209 8.208 29.3969 7.976H30.3329L30.4529 9.44L30.2849 9.452C30.3649 9.092 30.5049 8.796 30.7049 8.564C30.9049 8.332 31.1409 8.16 31.4129 8.048C31.6849 7.928 31.9689 7.868 32.2649 7.868C32.3849 7.868 32.4889 7.872 32.5769 7.88C32.6729 7.888 32.7609 7.908 32.8409 7.94L32.8289 8.804C32.7089 8.764 32.5969 8.74 32.4929 8.732C32.3969 8.716 32.2849 8.708 32.1569 8.708C31.8049 8.708 31.4969 8.792 31.2329 8.96C30.9769 9.128 30.7809 9.344 30.6449 9.608C30.5169 9.872 30.4529 10.152 30.4529 10.448V14H29.4689ZM36.0857 14.108C35.5497 14.108 35.0817 13.984 34.6817 13.736C34.2817 13.48 33.9697 13.12 33.7457 12.656C33.5297 12.192 33.4217 11.636 33.4217 10.988C33.4217 10.332 33.5297 9.772 33.7457 9.308C33.9697 8.844 34.2817 8.488 34.6817 8.24C35.0817 7.992 35.5497 7.868 36.0857 7.868C36.6297 7.868 37.0977 8.008 37.4897 8.288C37.8897 8.56 38.1537 8.932 38.2817 9.404H38.1377L38.2697 7.976H39.2057C39.1817 8.208 39.1577 8.444 39.1337 8.684C39.1177 8.916 39.1097 9.144 39.1097 9.368V14H38.1377V12.584H38.2697C38.1417 13.056 37.8777 13.428 37.4777 13.7C37.0777 13.972 36.6137 14.108 36.0857 14.108ZM36.2777 13.316C36.8537 13.316 37.3097 13.12 37.6457 12.728C37.9817 12.328 38.1497 11.748 38.1497 10.988C38.1497 10.22 37.9817 9.64 37.6457 9.248C37.3097 8.848 36.8537 8.648 36.2777 8.648C35.7097 8.648 35.2537 8.848 34.9097 9.248C34.5737 9.64 34.4057 10.22 34.4057 10.988C34.4057 11.748 34.5737 12.328 34.9097 12.728C35.2537 13.12 35.7097 13.316 36.2777 13.316ZM43.641 16.676C43.121 16.676 42.641 16.612 42.201 16.484C41.761 16.356 41.365 16.16 41.013 15.896L41.301 15.164C41.549 15.34 41.793 15.48 42.033 15.584C42.273 15.688 42.521 15.764 42.777 15.812C43.033 15.868 43.305 15.896 43.593 15.896C44.185 15.896 44.633 15.74 44.937 15.428C45.241 15.116 45.393 14.672 45.393 14.096V12.332H45.513C45.385 12.804 45.121 13.18 44.721 13.46C44.321 13.732 43.853 13.868 43.317 13.868C42.765 13.868 42.285 13.748 41.877 13.508C41.477 13.26 41.165 12.912 40.941 12.464C40.725 12.008 40.617 11.472 40.617 10.856C40.617 10.248 40.725 9.72 40.941 9.272C41.165 8.824 41.477 8.48 41.877 8.24C42.285 7.992 42.765 7.868 43.317 7.868C43.861 7.868 44.329 8.004 44.721 8.276C45.121 8.548 45.385 8.924 45.513 9.404L45.393 9.284L45.501 7.976H46.449C46.417 8.208 46.393 8.444 46.377 8.684C46.361 8.916 46.353 9.144 46.353 9.368V13.964C46.353 14.86 46.121 15.536 45.657 15.992C45.201 16.448 44.529 16.676 43.641 16.676ZM43.497 13.076C44.081 13.076 44.541 12.884 44.877 12.5C45.213 12.108 45.381 11.56 45.381 10.856C45.381 10.152 45.213 9.608 44.877 9.224C44.541 8.84 44.081 8.648 43.497 8.648C42.921 8.648 42.461 8.84 42.117 9.224C41.773 9.608 41.601 10.152 41.601 10.856C41.601 11.56 41.773 12.108 42.117 12.5C42.461 12.884 42.921 13.076 43.497 13.076ZM50.8955 14.108C49.9515 14.108 49.2075 13.836 48.6635 13.292C48.1195 12.74 47.8475 11.976 47.8475 11C47.8475 10.368 47.9675 9.82 48.2075 9.356C48.4475 8.884 48.7835 8.52 49.2155 8.264C49.6475 8 50.1435 7.868 50.7035 7.868C51.2555 7.868 51.7195 7.984 52.0955 8.216C52.4715 8.448 52.7595 8.78 52.9595 9.212C53.1595 9.636 53.2595 10.14 53.2595 10.724V11.084H48.5915V10.472H52.6235L52.4195 10.628C52.4195 9.988 52.2755 9.488 51.9875 9.128C51.6995 8.768 51.2715 8.588 50.7035 8.588C50.1035 8.588 49.6355 8.8 49.2995 9.224C48.9635 9.64 48.7955 10.204 48.7955 10.916V11.024C48.7955 11.776 48.9795 12.348 49.3475 12.74C49.7235 13.124 50.2475 13.316 50.9195 13.316C51.2795 13.316 51.6155 13.264 51.9275 13.16C52.2475 13.048 52.5515 12.868 52.8395 12.62L53.1755 13.304C52.9115 13.56 52.5755 13.76 52.1675 13.904C51.7675 14.04 51.3435 14.108 50.8955 14.108ZM61.3197 14.108C60.1757 14.108 59.3237 13.816 58.7637 13.232C58.2117 12.648 57.9357 11.788 57.9357 10.652V5.54H58.9197V10.604C58.9197 11.476 59.1117 12.132 59.4957 12.572C59.8797 13.012 60.4877 13.232 61.3197 13.232C62.1037 13.232 62.6997 13.012 63.1077 12.572C63.5157 12.132 63.7197 11.476 63.7197 10.604V5.54H64.7037V10.652C64.7037 11.788 64.4157 12.648 63.8397 13.232C63.2717 13.816 62.4317 14.108 61.3197 14.108ZM66.6414 16.592V9.368C66.6414 9.144 66.6294 8.916 66.6054 8.684C66.5894 8.444 66.5694 8.208 66.5454 7.976H67.4814L67.6134 9.404H67.4694C67.5974 8.932 67.8574 8.56 68.2494 8.288C68.6414 8.008 69.1094 7.868 69.6534 7.868C70.1974 7.868 70.6654 7.992 71.0574 8.24C71.4574 8.488 71.7694 8.844 71.9934 9.308C72.2174 9.772 72.3294 10.332 72.3294 10.988C72.3294 11.636 72.2174 12.192 71.9934 12.656C71.7774 13.12 71.4694 13.48 71.0694 13.736C70.6694 13.984 70.1974 14.108 69.6534 14.108C69.1174 14.108 68.6534 13.972 68.2614 13.7C67.8694 13.428 67.6094 13.056 67.4814 12.584H67.6134V16.592H66.6414ZM69.4614 13.316C70.0374 13.316 70.4934 13.12 70.8294 12.728C71.1734 12.328 71.3454 11.748 71.3454 10.988C71.3454 10.22 71.1734 9.64 70.8294 9.248C70.4934 8.848 70.0374 8.648 69.4614 8.648C68.8934 8.648 68.4374 8.848 68.0934 9.248C67.7574 9.64 67.5894 10.22 67.5894 10.988C67.5894 11.748 67.7574 12.328 68.0934 12.728C68.4374 13.12 68.8934 13.316 69.4614 13.316Z" fill="#595B58"/>
<g clip-path="url(#clip0_3151_153010)">
<path opacity="0.4" d="M71.076 48.2502C70.091 46.3272 68.498 44.7712 66.289 43.5842C64.089 42.3962 61.272 41.7982 57.849 41.7982H26.504C25.7379 41.7995 25.0036 42.1044 24.4619 42.6461C23.9202 43.1878 23.6153 43.9221 23.614 44.6882V63.5502C23.614 67.2502 22.261 69.0902 19.564 69.0902C16.858 69.0902 15.495 67.2402 15.495 63.5502V44.7442C15.4955 44.3572 15.4197 43.974 15.2719 43.6164C15.1241 43.2588 14.9072 42.9338 14.6337 42.6602C14.3601 42.3865 14.0352 42.1695 13.6777 42.0216C13.3202 41.8737 12.9369 41.7978 12.55 41.7982H3.604C2.84723 41.7987 2.12162 42.0995 1.5865 42.6347C1.05139 43.1698 0.75053 43.8954 0.75 44.6522V63.0802C0.75 64.4702 0.897 65.9802 1.192 67.6182C1.486 69.2572 2.232 71.0242 3.419 72.9202C4.607 74.8251 6.521 76.4462 9.163 77.7712C11.796 79.1062 15.266 79.7692 19.565 79.7692C19.013 79.7592 25.005 79.8332 29.718 76.5652C29.6266 76.0413 29.6505 75.5038 29.7879 74.9901C29.9253 74.4763 30.173 73.9987 30.5137 73.5904C30.8544 73.1821 31.28 72.8529 31.7608 72.6258C32.2417 72.3987 32.7662 72.279 33.298 72.2752C33.0289 71.8177 32.8864 71.2969 32.885 70.7662C32.8861 70.076 33.1258 69.4075 33.5636 68.874C34.0015 68.3405 34.6103 67.9749 35.287 67.8392C35.49 66.9652 35.609 66.1272 35.692 65.3812C35.674 65.3812 35.646 65.3812 35.618 65.3912C35.471 65.4002 34.422 65.5652 33.428 66.2192C32.7546 66.6663 32.1887 67.2571 31.771 67.9492C31.7032 68.0641 31.6079 68.1604 31.4937 68.2293C31.3794 68.2983 31.2498 68.3378 31.1165 68.3442C30.9832 68.3507 30.8505 68.3239 30.7301 68.2663C30.6097 68.2086 30.5056 68.122 30.427 68.0142C30.2772 67.8082 30.1358 67.5964 30.003 67.3792C29.764 66.9922 29.037 65.6762 28.613 63.7242C28.31 62.3072 28.089 61.2762 28.513 60.1812C29.092 58.6712 30.546 57.9072 31.403 57.5762C31.5564 57.516 31.6878 57.4106 31.7798 57.274C31.8718 57.1373 31.92 56.9759 31.918 56.8112C31.908 55.9092 31.964 54.9522 32.102 53.9391C32.13 53.7372 32.166 53.5352 32.194 53.3322C32.204 53.2492 32.222 53.1751 32.24 53.0921L32.295 52.8172L32.351 52.5682C33.731 46.3082 38.241 42.0282 38.241 42.0282C38.2759 41.9927 38.3177 41.9647 38.3638 41.9458C38.4098 41.9268 38.4592 41.9175 38.509 41.9182C38.601 41.9182 38.702 41.9552 38.776 42.0282C38.776 42.0282 39.899 43.0962 41.206 44.9562C42.504 46.8062 43.976 49.4482 44.666 52.5682C44.694 52.6972 44.722 52.8162 44.722 52.8162L44.777 53.0932C44.796 53.1752 44.805 53.2492 44.823 53.3322C45.0172 54.4818 45.1096 55.6463 45.099 56.8122C45.099 57.1522 45.302 57.4562 45.615 57.5762C46.471 57.9062 47.925 58.6712 48.505 60.1812C48.929 61.2762 48.708 62.3162 48.404 63.7242C47.99 65.6762 47.254 66.9832 47.014 67.3792C46.876 67.6092 46.729 67.8212 46.591 68.0142C46.5124 68.122 46.4083 68.2086 46.2879 68.2663C46.1675 68.3239 46.0348 68.3507 45.9015 68.3442C45.7682 68.3378 45.6386 68.2983 45.5243 68.2293C45.4101 68.1604 45.3148 68.0641 45.247 67.9492C44.8293 67.2572 44.2634 66.6663 43.59 66.2192C42.926 65.7923 42.1794 65.5102 41.399 65.3912H41.353C41.427 66.2192 41.537 67.0572 41.693 67.8852C42.1398 68.0026 42.5531 68.2224 42.9002 68.5273C43.2473 68.8321 43.5187 69.2136 43.6929 69.6414C43.8671 70.0693 43.9392 70.5319 43.9036 70.9925C43.8681 71.4531 43.7258 71.8991 43.488 72.2952C44.3957 72.3811 45.2389 72.8019 45.8534 73.4755C46.4679 74.1491 46.8096 75.0274 46.812 75.9392C46.811 76.2215 46.7767 76.5028 46.71 76.7772C47.835 77.581 49.09 78.1852 50.42 78.5632C50.503 78.5722 50.595 78.5812 50.678 78.6002C51.017 78.6419 51.3611 78.6112 51.6874 78.51C52.0137 78.4088 52.3147 78.2394 52.5706 78.013C52.8264 77.7867 53.0312 77.5085 53.1715 77.197C53.3117 76.8855 53.3842 76.5478 53.384 76.2062V68.8612C53.384 67.9592 54.12 67.2312 55.022 67.2312H57.867C61.282 67.2312 64.089 66.6332 66.289 65.4372C68.489 64.2402 70.091 62.6842 71.076 60.7602C72.07 58.8372 72.558 56.7472 72.558 54.4832C72.558 52.2551 72.061 50.1742 71.076 48.2502ZM57.655 56.8672C57.065 57.3912 56.182 57.6582 55.013 57.6582C54.5798 57.6592 54.1639 57.4882 53.8568 57.1827C53.5496 56.8773 53.3763 56.4623 53.375 56.0292V53.0191C53.375 52.5681 53.559 52.1632 53.853 51.8692C54.1609 51.5619 54.578 51.3893 55.013 51.3892C57.36 51.3892 58.539 52.4291 58.539 54.5012C58.539 55.5511 58.244 56.3332 57.655 56.8672ZM43.055 72.2942C43.111 72.4142 43.175 72.5342 43.231 72.6542C43.3221 72.5455 43.4025 72.4283 43.471 72.3042C43.3576 72.2932 43.2439 72.2869 43.13 72.2852C43.1049 72.284 43.0799 72.2874 43.056 72.2952L43.055 72.2942ZM33.612 72.3042C33.52 72.2942 33.418 72.2942 33.317 72.2942H33.289C33.345 72.3862 33.399 72.4782 33.464 72.5612C33.51 72.4692 33.556 72.3872 33.612 72.3042ZM1.459 37.7762C1.35191 37.7783 1.24615 37.7521 1.1524 37.7003C1.05864 37.6485 0.980205 37.5729 0.925 37.4812C0.864852 37.3874 0.829853 37.2797 0.823373 37.1685C0.816893 37.0573 0.839149 36.9463 0.888 36.8462L4.368 28.5432C4.488 28.2582 4.69 28.1102 4.975 28.1102C5.27 28.1102 5.472 28.2582 5.583 28.5432L9.071 36.8732C9.163 37.1032 9.145 37.3152 9.025 37.5002C8.905 37.6842 8.731 37.7762 8.491 37.7762C8.36736 37.7738 8.24657 37.7386 8.141 37.6742C8.03077 37.6056 7.94664 37.5021 7.902 37.3802L4.837 29.7582H5.187L2.067 37.3802C2.01771 37.5051 1.9265 37.609 1.809 37.6742C1.70476 37.7415 1.58311 37.777 1.459 37.7762ZM2.122 35.6492L2.619 34.5822H7.469L7.967 35.6492H2.122ZM11.188 37.7762C11.1029 37.7779 11.0184 37.7625 10.9395 37.7307C10.8605 37.699 10.7888 37.6516 10.7287 37.5915C10.6685 37.5313 10.6212 37.4596 10.5894 37.3807C10.5577 37.3017 10.5422 37.2172 10.544 37.1322V28.7542C10.544 28.5612 10.608 28.4142 10.728 28.2942C10.7888 28.2353 10.8609 28.1895 10.94 28.1594C11.0191 28.1293 11.1035 28.1156 11.188 28.1192H13.416C14.033 28.1192 14.585 28.2482 15.064 28.5052C15.5295 28.751 15.9181 29.1206 16.187 29.5732C16.454 30.0242 16.592 30.5582 16.592 31.1562C16.5991 31.6841 16.4588 32.2035 16.187 32.6562C15.9168 33.0986 15.5277 33.4562 15.064 33.6882C14.585 33.9362 14.033 34.0562 13.416 34.0562H11.833V37.1302C11.8341 37.3 11.7717 37.464 11.658 37.5902C11.5315 37.7109 11.3628 37.7773 11.188 37.7752V37.7762ZM11.833 32.8602H13.416C13.793 32.8602 14.125 32.7872 14.419 32.6402C14.705 32.4922 14.935 32.2902 15.1 32.0322C15.266 31.7742 15.349 31.4792 15.349 31.1482C15.3543 30.8098 15.2687 30.4761 15.101 30.1822C14.9365 29.9069 14.7009 29.681 14.419 29.5282C14.1102 29.3649 13.7652 29.2824 13.416 29.2882H11.833V32.8602ZM16.325 37.7762C16.2129 37.7813 16.1015 37.7546 16.0039 37.6992C15.9062 37.6438 15.8262 37.562 15.773 37.4632L13.545 33.8732L14.797 33.5132L16.822 36.7822C16.969 37.0212 16.988 37.2422 16.886 37.4532C16.776 37.6742 16.583 37.7762 16.325 37.7762ZM19.003 37.7762C18.9179 37.7779 18.8334 37.7625 18.7545 37.7307C18.6755 37.699 18.6038 37.6516 18.5437 37.5915C18.4835 37.5313 18.4361 37.4596 18.4044 37.3807C18.3727 37.3017 18.3572 37.2172 18.359 37.1322V28.7542C18.359 28.5612 18.423 28.4142 18.543 28.2942C18.6038 28.2353 18.6759 28.1895 18.755 28.1594C18.8341 28.1293 18.9185 28.1156 19.003 28.1192H21.958C22.52 28.1192 23.008 28.2292 23.44 28.4502C23.8492 28.6594 24.1954 28.9739 24.443 29.3612C24.683 29.7482 24.812 30.1992 24.812 30.6962C24.812 31.1012 24.702 31.4692 24.48 31.7912C24.26 32.1142 23.965 32.3712 23.587 32.5652C24.131 32.6942 24.572 32.9602 24.895 33.3472C25.225 33.7342 25.392 34.2402 25.392 34.8662C25.392 35.4362 25.254 35.9342 24.987 36.3762C24.7165 36.8179 24.3274 37.1748 23.864 37.4062C23.385 37.6552 22.833 37.7842 22.216 37.7842H19.003V37.7742V37.7762ZM19.648 32.0872H21.958C22.428 32.0872 22.814 31.9672 23.118 31.7372C23.422 31.5072 23.569 31.1572 23.569 30.6872C23.569 30.2182 23.422 29.8692 23.118 29.6382C22.814 29.4082 22.428 29.2982 21.958 29.2982H19.648V32.0872ZM19.648 36.5882H22.225C22.602 36.5882 22.934 36.5241 23.228 36.3862C23.5074 36.2641 23.7447 36.0624 23.91 35.8062C24.075 35.5482 24.158 35.2362 24.158 34.8582C24.158 34.4982 24.075 34.2132 23.91 33.9832C23.7364 33.7483 23.5005 33.5668 23.229 33.4592C22.943 33.3392 22.602 33.2842 22.225 33.2842H19.648V36.5882ZM27.95 37.7762C27.8649 37.7779 27.7804 37.7625 27.7015 37.7307C27.6225 37.699 27.5508 37.6516 27.4907 37.5915C27.4305 37.5313 27.3832 37.4596 27.3514 37.3807C27.3197 37.3017 27.3042 37.2172 27.306 37.1322V28.7542C27.3034 28.6689 27.3184 28.5841 27.3501 28.505C27.3817 28.4258 27.4294 28.3541 27.49 28.2942C27.5508 28.2353 27.6229 28.1895 27.702 28.1594C27.7811 28.1293 27.8655 28.1156 27.95 28.1192C28.144 28.1192 28.291 28.1832 28.41 28.2942C28.53 28.4142 28.586 28.5702 28.586 28.7542V37.1302C28.5871 37.3 28.5247 37.464 28.411 37.5902C28.3518 37.6518 28.2802 37.7002 28.2009 37.7321C28.1216 37.764 28.0364 37.7787 27.951 37.7752L27.95 37.7762ZM30.61 29.2982C30.5319 29.301 30.454 29.2878 30.3812 29.2592C30.3084 29.2306 30.2423 29.1874 30.187 29.1322C30.1326 29.0763 30.09 29.01 30.0616 28.9374C30.0333 28.8647 30.0198 28.7871 30.022 28.7092C30.022 28.5342 30.077 28.3962 30.187 28.2852C30.243 28.2306 30.3094 28.1879 30.3822 28.1596C30.4551 28.1312 30.5329 28.1178 30.611 28.1202H37.229C37.404 28.1202 37.542 28.1752 37.653 28.2852C37.763 28.3952 37.818 28.5432 37.818 28.7092C37.8211 28.7872 37.808 28.8651 37.7796 28.9379C37.7512 29.0106 37.7081 29.0768 37.653 29.1322C37.5971 29.1869 37.5307 29.2297 37.4579 29.2583C37.385 29.2868 37.3072 29.3003 37.229 29.2982H30.61ZM33.925 37.7762C33.8399 37.7779 33.7554 37.7625 33.6765 37.7307C33.5975 37.699 33.5258 37.6516 33.4657 37.5915C33.4055 37.5313 33.3582 37.4596 33.3264 37.3807C33.2947 37.3017 33.2792 37.2172 33.281 37.1322V28.1102H34.569V37.1312C34.5706 37.2162 34.5551 37.3006 34.5233 37.3795C34.4915 37.4584 34.4441 37.53 34.384 37.5902C34.3239 37.6503 34.2522 37.6977 34.1734 37.7295C34.0945 37.7612 34.01 37.7768 33.925 37.7752V37.7762ZM39.89 37.7762C39.8049 37.7779 39.7204 37.7625 39.6415 37.7307C39.5625 37.699 39.4908 37.6516 39.4307 37.5915C39.3705 37.5313 39.3232 37.4596 39.2914 37.3807C39.2597 37.3017 39.2442 37.2172 39.246 37.1322V28.7542C39.246 28.5612 39.309 28.4142 39.429 28.2942C39.4898 28.2353 39.5619 28.1895 39.641 28.1594C39.7201 28.1293 39.8045 28.1156 39.889 28.1192H42.117C42.734 28.1192 43.286 28.2482 43.765 28.5052C44.2305 28.751 44.6191 29.1206 44.888 29.5732C45.155 30.0242 45.293 30.5582 45.293 31.1562C45.293 31.7182 45.155 32.2152 44.888 32.6562C44.6178 33.0986 44.2287 33.4562 43.765 33.6882C43.286 33.9362 42.734 34.0562 42.117 34.0562H40.534V37.1302C40.5351 37.3 40.4727 37.464 40.359 37.5902C40.2974 37.6514 40.2239 37.6993 40.1431 37.7311C40.0623 37.763 39.9758 37.7779 39.889 37.7752L39.89 37.7762ZM40.534 32.8602H42.117C42.4641 32.8677 42.808 32.7923 43.12 32.6402C43.406 32.4922 43.636 32.2902 43.801 32.0322C43.969 31.7683 44.0559 31.4609 44.051 31.1482C44.0557 30.8096 43.9694 30.4759 43.801 30.1822C43.637 29.9072 43.4021 29.6813 43.121 29.5282C42.8119 29.3648 42.4665 29.2822 42.117 29.2882H40.534V32.8602ZM45.026 37.7762C44.9139 37.7811 44.8026 37.7544 44.705 37.6991C44.6073 37.6437 44.5273 37.5619 44.474 37.4632L42.246 33.8732L43.498 33.5132L45.523 36.7822C45.67 37.0212 45.688 37.2422 45.587 37.4532C45.477 37.6742 45.293 37.7762 45.026 37.7762ZM46.683 37.7762C46.5759 37.7782 46.4702 37.752 46.3765 37.7002C46.2827 37.6484 46.2043 37.5729 46.149 37.4812C46.0888 37.3874 46.0539 37.2797 46.0474 37.1685C46.0409 37.0573 46.0631 36.9463 46.112 36.8462L49.592 28.5432C49.712 28.2582 49.914 28.1102 50.199 28.1102C50.493 28.1102 50.696 28.2582 50.807 28.5432L54.295 36.8732C54.387 37.1032 54.369 37.3152 54.249 37.5002C54.129 37.6842 53.955 37.7762 53.715 37.7762C53.5914 37.7738 53.4706 37.7386 53.365 37.6742C53.2548 37.6056 53.1706 37.5021 53.126 37.3802L50.061 29.7582H50.411L47.29 37.3802C47.2407 37.5051 47.1495 37.609 47.032 37.6742C46.9278 37.7415 46.8071 37.777 46.683 37.7762ZM47.336 35.6492L47.833 34.5822H52.684L53.181 35.6492H47.336ZM59.846 37.9052C59.2008 37.9079 58.5618 37.7793 57.968 37.5272C57.3957 37.2838 56.8789 36.9265 56.449 36.4772C56.0131 36.0232 55.6694 35.489 55.437 34.9042C55.1902 34.2831 55.0649 33.6204 55.068 32.9522C55.068 32.2622 55.188 31.6182 55.437 31.0192C55.6694 30.434 56.0131 29.8995 56.449 29.4452C56.8811 28.9963 57.3972 28.6368 57.968 28.3872C58.5596 28.1268 59.1997 27.9949 59.846 28.0002C60.481 28.0002 61.024 28.0832 61.484 28.2492C61.944 28.4142 62.404 28.6902 62.865 29.0682C62.929 29.1142 62.985 29.1692 63.022 29.2242C63.058 29.2792 63.086 29.3342 63.095 29.3812C63.105 29.4362 63.114 29.5012 63.114 29.5742C63.1152 29.648 63.101 29.7214 63.0725 29.7895C63.0439 29.8577 63.0015 29.9192 62.948 29.9702C62.8399 30.0775 62.6952 30.14 62.543 30.1452C62.3783 30.1509 62.2175 30.0949 62.092 29.9882C61.8114 29.7352 61.4912 29.5301 61.144 29.3812C60.822 29.2432 60.389 29.1692 59.854 29.1692C59.3813 29.167 58.9139 29.2677 58.484 29.4642C58.051 29.6662 57.674 29.9332 57.351 30.2832C56.6777 31.0083 56.3059 31.9626 56.311 32.9522C56.311 33.4772 56.403 33.9742 56.587 34.4342C56.771 34.8942 57.02 35.2902 57.351 35.6402C57.673 35.9902 58.051 36.2572 58.483 36.4502C58.916 36.6432 59.367 36.7452 59.855 36.7452C60.278 36.7452 60.675 36.6712 61.052 36.5242C61.429 36.3772 61.788 36.1842 62.138 35.9252C62.2533 35.8291 62.4003 35.7796 62.5502 35.7865C62.7001 35.7933 62.842 35.856 62.948 35.9622C63.049 36.0642 63.095 36.2112 63.095 36.3862C63.0939 36.4679 63.0783 36.5488 63.049 36.6252C63.0152 36.7101 62.9618 36.7859 62.893 36.8462C62.4697 37.1994 61.9863 37.4738 61.466 37.6562C60.9412 37.8186 60.3953 37.9025 59.846 37.9052ZM63.076 36.3672L61.843 36.1192V33.9002H60.14C59.9731 33.9035 59.8104 33.8483 59.68 33.7442C59.6216 33.6942 59.5748 33.6321 59.543 33.5621C59.5112 33.4921 59.4952 33.416 59.496 33.3392C59.4941 33.2621 59.5096 33.1857 59.5415 33.1155C59.5734 33.0454 59.6207 32.9834 59.68 32.9342C59.8075 32.8247 59.9722 32.7684 60.14 32.7772H62.45C62.6207 32.7727 62.7863 32.8355 62.911 32.9522C63.031 33.0722 63.086 33.2282 63.086 33.4122V36.3672H63.076ZM65.774 37.7762C65.6889 37.7779 65.6044 37.7625 65.5255 37.7307C65.4465 37.699 65.3748 37.6516 65.3147 37.5915C65.2545 37.5313 65.2072 37.4596 65.1754 37.3807C65.1437 37.3017 65.1282 37.2172 65.13 37.1322V28.7542C65.13 28.5612 65.194 28.4142 65.314 28.2942C65.3748 28.2353 65.4469 28.1895 65.526 28.1594C65.6051 28.1293 65.6895 28.1156 65.774 28.1192H71.37C71.564 28.1192 71.71 28.1742 71.83 28.2842C71.8893 28.3409 71.9356 28.4098 71.9658 28.486C71.996 28.5623 72.0094 28.6442 72.005 28.7262C72.0087 28.8052 71.995 28.8842 71.9649 28.9574C71.9349 29.0307 71.8892 29.0964 71.831 29.1502C71.711 29.2602 71.564 29.3062 71.371 29.3062H66.418V32.3162H69.971C70.165 32.3162 70.311 32.3712 70.431 32.4822C70.551 32.5922 70.606 32.7402 70.606 32.9052C70.6096 32.9843 70.5958 33.0633 70.5656 33.1366C70.5353 33.2098 70.4894 33.2756 70.431 33.3292C70.3055 33.4427 70.1401 33.5021 69.971 33.4942H66.418V36.5872H71.37C71.5374 36.581 71.7012 36.6369 71.83 36.7442C71.8884 36.7975 71.9343 36.8631 71.9645 36.9362C71.9948 37.0093 72.0086 37.0881 72.005 37.1672C72.0095 37.249 71.9963 37.3309 71.9662 37.4071C71.9362 37.4834 71.8901 37.5523 71.831 37.6092C71.7056 37.723 71.5402 37.7827 71.371 37.7752H65.774V37.7762Z" fill="#595B58"/>
<path opacity="0.4" d="M38.5001 52.5678C39.0493 52.5678 39.5761 52.3496 39.9645 51.9612C40.3529 51.5728 40.5711 51.046 40.5711 50.4968C40.5711 49.9475 40.3529 49.4207 39.9645 49.0324C39.5761 48.644 39.0493 48.4258 38.5001 48.4258C37.9508 48.4258 37.424 48.644 37.0356 49.0324C36.6473 49.4207 36.4291 49.9475 36.4291 50.4968C36.4291 51.046 36.6473 51.5728 37.0356 51.9612C37.424 52.3496 37.9508 52.5678 38.5001 52.5678ZM33.6121 72.3028C33.5661 72.3858 33.5201 72.4688 33.4641 72.5518C33.4006 72.4663 33.3421 72.3771 33.2891 72.2848H33.3171C33.4181 72.2848 33.5101 72.2948 33.6121 72.3028ZM43.4801 72.3028C43.4061 72.4228 43.3231 72.5428 43.2401 72.6528C43.1783 72.5348 43.1199 72.4151 43.0651 72.2938H43.1481C43.2491 72.2848 43.3681 72.2938 43.4791 72.3038L43.4801 72.3028Z" fill="#595B58"/>
<path opacity="0.4" d="M43.4801 72.3032C43.4061 72.4232 43.3231 72.5432 43.2401 72.6532C43.1783 72.5352 43.1199 72.4155 43.0651 72.2942H43.1481C43.2491 72.2852 43.3681 72.2942 43.4791 72.3042L43.4801 72.3032ZM33.6121 72.3032C33.5661 72.3862 33.5201 72.4692 33.4641 72.5522C33.4006 72.4666 33.3421 72.3775 33.2891 72.2852H33.3171C33.4181 72.2852 33.5101 72.2952 33.6121 72.3032Z" fill="#595B58"/>
</g>
<defs>
<clipPath id="clip0_3151_153010">
<rect width="73" height="52" fill="white" transform="translate(0.5 28)"/>
</clipPath>
</defs>
</svg>
