<svg width="75" height="80" viewBox="0 0 75 80" fill="none" xmlns="http://www.w3.org/2000/svg">
<path d="M1.56431 9.764C1.56431 8.868 1.71631 8.1 2.02031 7.46C2.33231 6.812 2.77631 6.312 3.35231 5.96C3.93631 5.608 4.63631 5.432 5.45231 5.432C6.24431 5.432 6.93231 5.608 7.51631 5.96C8.10031 6.312 8.54831 6.812 8.86031 7.46C9.18031 8.1 9.34031 8.864 9.34031 9.752C9.34031 10.648 9.18031 11.42 8.86031 12.068C8.54031 12.716 8.08831 13.22 7.50431 13.58C6.92831 13.932 6.24431 14.108 5.45231 14.108C4.63631 14.108 3.94031 13.932 3.36431 13.58C2.78831 13.22 2.34431 12.716 2.03231 12.068C1.72031 11.42 1.56431 10.652 1.56431 9.764ZM2.60831 9.764C2.60831 10.852 2.84831 11.704 3.32831 12.32C3.80831 12.928 4.51631 13.232 5.45231 13.232C6.34831 13.232 7.04431 12.928 7.54031 12.32C8.04431 11.704 8.29631 10.852 8.29631 9.764C8.29631 8.668 8.04831 7.82 7.55231 7.22C7.05631 6.612 6.35631 6.308 5.45231 6.308C4.51631 6.308 3.80831 6.612 3.32831 7.22C2.84831 7.82 2.60831 8.668 2.60831 9.764ZM11.0378 14V9.368C11.0378 9.144 11.0258 8.916 11.0018 8.684C10.9858 8.444 10.9658 8.208 10.9418 7.976H11.8778L11.9978 9.296H11.8538C12.0298 8.832 12.3098 8.48 12.6938 8.24C13.0858 7.992 13.5378 7.868 14.0498 7.868C14.7618 7.868 15.2978 8.06 15.6578 8.444C16.0258 8.82 16.2098 9.416 16.2098 10.232V14H15.2378V10.292C15.2378 9.724 15.1218 9.312 14.8898 9.056C14.6658 8.792 14.3138 8.66 13.8338 8.66C13.2738 8.66 12.8298 8.832 12.5018 9.176C12.1738 9.52 12.0098 9.98 12.0098 10.556V14H11.0378ZM20.7451 14.108C19.8011 14.108 19.0571 13.836 18.5131 13.292C17.9691 12.74 17.6971 11.976 17.6971 11C17.6971 10.368 17.8171 9.82 18.0571 9.356C18.2971 8.884 18.6331 8.52 19.0651 8.264C19.4971 8 19.9931 7.868 20.5531 7.868C21.1051 7.868 21.5691 7.984 21.9451 8.216C22.3211 8.448 22.6091 8.78 22.8091 9.212C23.0091 9.636 23.1091 10.14 23.1091 10.724V11.084H18.4411V10.472H22.4731L22.2691 10.628C22.2691 9.988 22.1251 9.488 21.8371 9.128C21.5491 8.768 21.1211 8.588 20.5531 8.588C19.9531 8.588 19.4851 8.8 19.1491 9.224C18.8131 9.64 18.6451 10.204 18.6451 10.916V11.024C18.6451 11.776 18.8291 12.348 19.1971 12.74C19.5731 13.124 20.0971 13.316 20.7691 13.316C21.1291 13.316 21.4651 13.264 21.7771 13.16C22.0971 13.048 22.4011 12.868 22.6891 12.62L23.0251 13.304C22.7611 13.56 22.4251 13.76 22.0171 13.904C21.6171 14.04 21.1931 14.108 20.7451 14.108ZM27.8333 14V5.54H31.2773C32.1653 5.54 32.8493 5.756 33.3293 6.188C33.8093 6.612 34.0493 7.204 34.0493 7.964C34.0493 8.708 33.8093 9.3 33.3293 9.74C32.8493 10.172 32.1653 10.388 31.2773 10.388H28.8293V14H27.8333ZM28.8293 9.56H31.1813C31.7973 9.56 32.2613 9.42 32.5733 9.14C32.8933 8.86 33.0533 8.468 33.0533 7.964C33.0533 7.452 32.8933 7.056 32.5733 6.776C32.2613 6.496 31.7973 6.356 31.1813 6.356H28.8293V9.56ZM37.5408 14.108C37.0048 14.108 36.5368 13.984 36.1368 13.736C35.7368 13.48 35.4248 13.12 35.2008 12.656C34.9848 12.192 34.8768 11.636 34.8768 10.988C34.8768 10.332 34.9848 9.772 35.2008 9.308C35.4248 8.844 35.7368 8.488 36.1368 8.24C36.5368 7.992 37.0048 7.868 37.5408 7.868C38.0848 7.868 38.5528 8.008 38.9448 8.288C39.3448 8.56 39.6088 8.932 39.7368 9.404H39.5928L39.7248 7.976H40.6608C40.6368 8.208 40.6128 8.444 40.5888 8.684C40.5728 8.916 40.5648 9.144 40.5648 9.368V14H39.5928V12.584H39.7248C39.5968 13.056 39.3328 13.428 38.9328 13.7C38.5328 13.972 38.0688 14.108 37.5408 14.108ZM37.7328 13.316C38.3088 13.316 38.7648 13.12 39.1008 12.728C39.4368 12.328 39.6048 11.748 39.6048 10.988C39.6048 10.22 39.4368 9.64 39.1008 9.248C38.7648 8.848 38.3088 8.648 37.7328 8.648C37.1648 8.648 36.7088 8.848 36.3648 9.248C36.0288 9.64 35.8608 10.22 35.8608 10.988C35.8608 11.748 36.0288 12.328 36.3648 12.728C36.7088 13.12 37.1648 13.316 37.7328 13.316ZM42.4201 14V9.428C42.4201 9.188 42.4121 8.944 42.3961 8.696C42.3881 8.448 42.3721 8.208 42.3481 7.976H43.2841L43.4041 9.44L43.2361 9.452C43.3161 9.092 43.4561 8.796 43.6561 8.564C43.8561 8.332 44.0921 8.16 44.3641 8.048C44.6361 7.928 44.9201 7.868 45.2161 7.868C45.3361 7.868 45.4401 7.872 45.5281 7.88C45.6241 7.888 45.7121 7.908 45.7921 7.94L45.7801 8.804C45.6601 8.764 45.5481 8.74 45.4441 8.732C45.3481 8.716 45.2361 8.708 45.1081 8.708C44.7561 8.708 44.4481 8.792 44.1841 8.96C43.9281 9.128 43.7321 9.344 43.5961 9.608C43.4681 9.872 43.4041 10.152 43.4041 10.448V14H42.4201ZM49.2559 14.108C48.6639 14.108 48.2119 13.94 47.8999 13.604C47.5879 13.26 47.4319 12.744 47.4319 12.056V8.732H46.2559V7.976H47.4319V6.332L48.4039 6.056V7.976H50.1319V8.732H48.4039V11.948C48.4039 12.428 48.4839 12.772 48.6439 12.98C48.8119 13.18 49.0599 13.28 49.3879 13.28C49.5399 13.28 49.6759 13.268 49.7959 13.244C49.9159 13.212 50.0239 13.176 50.1199 13.136V13.952C50.0079 14 49.8719 14.036 49.7119 14.06C49.5599 14.092 49.4079 14.108 49.2559 14.108ZM51.3152 14V9.368C51.3152 9.144 51.3032 8.916 51.2792 8.684C51.2632 8.444 51.2432 8.208 51.2192 7.976H52.1552L52.2752 9.296H52.1312C52.3072 8.832 52.5872 8.48 52.9712 8.24C53.3632 7.992 53.8152 7.868 54.3272 7.868C55.0392 7.868 55.5752 8.06 55.9352 8.444C56.3032 8.82 56.4872 9.416 56.4872 10.232V14H55.5152V10.292C55.5152 9.724 55.3992 9.312 55.1672 9.056C54.9432 8.792 54.5912 8.66 54.1112 8.66C53.5512 8.66 53.1072 8.832 52.7792 9.176C52.4512 9.52 52.2872 9.98 52.2872 10.556V14H51.3152ZM61.0224 14.108C60.0784 14.108 59.3344 13.836 58.7904 13.292C58.2464 12.74 57.9744 11.976 57.9744 11C57.9744 10.368 58.0944 9.82 58.3344 9.356C58.5744 8.884 58.9104 8.52 59.3424 8.264C59.7744 8 60.2704 7.868 60.8304 7.868C61.3824 7.868 61.8464 7.984 62.2224 8.216C62.5984 8.448 62.8864 8.78 63.0864 9.212C63.2864 9.636 63.3864 10.14 63.3864 10.724V11.084H58.7184V10.472H62.7504L62.5464 10.628C62.5464 9.988 62.4024 9.488 62.1144 9.128C61.8264 8.768 61.3984 8.588 60.8304 8.588C60.2304 8.588 59.7624 8.8 59.4264 9.224C59.0904 9.64 58.9224 10.204 58.9224 10.916V11.024C58.9224 11.776 59.1064 12.348 59.4744 12.74C59.8504 13.124 60.3744 13.316 61.0464 13.316C61.4064 13.316 61.7424 13.264 62.0544 13.16C62.3744 13.048 62.6784 12.868 62.9664 12.62L63.3024 13.304C63.0384 13.56 62.7024 13.76 62.2944 13.904C61.8944 14.04 61.4704 14.108 61.0224 14.108ZM64.8498 14V9.428C64.8498 9.188 64.8418 8.944 64.8258 8.696C64.8178 8.448 64.8018 8.208 64.7778 7.976H65.7138L65.8338 9.44L65.6658 9.452C65.7458 9.092 65.8858 8.796 66.0858 8.564C66.2858 8.332 66.5218 8.16 66.7938 8.048C67.0658 7.928 67.3498 7.868 67.6458 7.868C67.7658 7.868 67.8698 7.872 67.9578 7.88C68.0538 7.888 68.1418 7.908 68.2218 7.94L68.2098 8.804C68.0898 8.764 67.9778 8.74 67.8738 8.732C67.7778 8.716 67.6658 8.708 67.5378 8.708C67.1858 8.708 66.8778 8.792 66.6138 8.96C66.3578 9.128 66.1618 9.344 66.0258 9.608C65.8978 9.872 65.8338 10.152 65.8338 10.448V14H64.8498ZM71.1786 14.108C70.6986 14.108 70.2506 14.044 69.8346 13.916C69.4186 13.78 69.0746 13.592 68.8026 13.352L69.1386 12.668C69.4346 12.9 69.7546 13.072 70.0986 13.184C70.4506 13.296 70.8146 13.352 71.1906 13.352C71.6706 13.352 72.0306 13.268 72.2706 13.1C72.5186 12.924 72.6426 12.684 72.6426 12.38C72.6426 12.148 72.5626 11.964 72.4026 11.828C72.2506 11.684 71.9986 11.572 71.6466 11.492L70.5306 11.264C70.0186 11.152 69.6346 10.964 69.3786 10.7C69.1226 10.428 68.9946 10.084 68.9946 9.668C68.9946 9.316 69.0866 9.008 69.2706 8.744C69.4546 8.472 69.7226 8.26 70.0746 8.108C70.4266 7.948 70.8386 7.868 71.3106 7.868C71.7506 7.868 72.1546 7.936 72.5226 8.072C72.8986 8.2 73.2106 8.388 73.4586 8.636L73.1106 9.308C72.8706 9.076 72.5946 8.904 72.2826 8.792C71.9786 8.672 71.6626 8.612 71.3346 8.612C70.8626 8.612 70.5066 8.708 70.2666 8.9C70.0346 9.084 69.9186 9.328 69.9186 9.632C69.9186 9.864 69.9906 10.056 70.1346 10.208C70.2866 10.352 70.5186 10.46 70.8306 10.532L71.9466 10.76C72.4906 10.88 72.8946 11.068 73.1586 11.324C73.4306 11.572 73.5666 11.908 73.5666 12.332C73.5666 12.692 73.4666 13.008 73.2666 13.28C73.0666 13.544 72.7866 13.748 72.4266 13.892C72.0746 14.036 71.6586 14.108 71.1786 14.108Z" fill="#595B58"/>
<g clip-path="url(#clip0_3151_153016)">
<path opacity="0.4" d="M54.156 54.7344C56.8497 54.7344 59.0745 55.6006 60.8302 57.3331C62.61 59.0416 63.4999 61.2192 63.4999 63.8661C63.4999 66.513 62.61 68.7026 60.8302 70.4351C59.0504 72.1676 56.8257 73.0339 54.156 73.0339H45.1973V79.9999H38.2344V54.7344H54.156ZM53.3262 66.934C54.2161 66.934 54.9376 66.6573 55.4909 66.1039C56.0681 65.5264 56.3567 64.7805 56.3567 63.8661C56.3567 63.2886 56.2244 62.7713 55.9598 62.314C55.7193 61.8328 55.3706 61.4598 54.9136 61.1951C54.4566 60.9305 53.9275 60.7982 53.3262 60.7982H45.1973V66.934H53.3262ZM59.1519 75.6519H63.4999V79.9999H59.1519V75.6519Z" fill="#595B58"/>
<path opacity="0.4" d="M55.9285 28H63.5V53.2656H57.0622L45.806 39.55V53.2656H38.2344V28H45.0368L55.9285 41.2463V28ZM18.4179 73.9443H36.7656V80H11.5V54.7344H36.7656V60.7902H18.4179V64.4663H36.7656V70.1957H18.4179V73.9443Z" fill="#595B58"/>
<path opacity="0.4" fill-rule="evenodd" clip-rule="evenodd" d="M34.0419 50.806L34.0154 50.829C32.1397 48.8133 29.655 47.3726 26.8544 46.8C29.0023 45.7816 30.4877 43.5927 30.4877 41.0568C30.4877 38.596 29.0891 36.462 27.0438 35.4072C27.0189 35.3945 26.9979 35.3751 26.9832 35.3512C26.9685 35.3273 26.9607 35.2999 26.9606 35.2718V32.289C26.9606 32.1533 26.795 32.0869 26.7013 32.1852L25.786 33.1445C25.7699 33.1613 25.7502 33.1742 25.7283 33.1821C25.7065 33.19 25.6831 33.1928 25.66 33.1901C25.6369 33.1875 25.6147 33.1795 25.5952 33.1669C25.5757 33.1542 25.5594 33.1372 25.5476 33.1172L24.2684 30.9539C24.2101 30.8554 24.0676 30.8554 24.0094 30.9539L22.7302 33.1172C22.7184 33.1372 22.7021 33.1542 22.6825 33.1668C22.663 33.1795 22.6409 33.1874 22.6178 33.1901C22.5947 33.1927 22.5713 33.19 22.5494 33.1821C22.5276 33.1741 22.5078 33.1613 22.4918 33.1444L21.5765 32.1851C21.4828 32.0869 21.3172 32.1533 21.3172 32.289V35.2718C21.317 35.2998 21.3092 35.3273 21.2946 35.3512C21.2799 35.3751 21.2589 35.3945 21.234 35.4072C19.1887 36.462 17.7901 38.596 17.7901 41.0568C17.7901 43.5927 19.2755 45.7816 21.4234 46.8C18.6227 47.3726 16.1381 48.8133 14.2624 50.829L14.2358 50.806C13.2326 49.8522 12.4686 48.6752 12.0058 47.3707C11.5 45.9448 11.5 44.1691 11.5 40.6176C11.5 37.0661 11.5 35.2904 12.0058 33.8644C12.8938 31.3609 14.8666 29.3915 17.3744 28.505C18.8026 28 20.5814 28 24.1389 28C27.6964 28 29.4751 28 30.9034 28.505C33.4111 29.3915 35.3839 31.3609 36.272 33.8644C36.7778 35.2904 36.7778 37.0661 36.7778 40.6176C36.7778 44.1691 36.7778 45.9448 36.272 47.3707C35.8092 48.6753 35.0452 49.8523 34.0419 50.806Z" fill="#595B58"/>
<path opacity="0.4" d="M23.8172 32.8267C23.8051 32.8046 23.7988 32.7798 23.7988 32.7546C23.7988 32.7294 23.8051 32.7047 23.8172 32.6826L24.0069 32.3347C24.064 32.2302 24.2141 32.2302 24.2711 32.3347L24.4608 32.6826C24.4729 32.7047 24.4792 32.7294 24.4792 32.7546C24.4792 32.7798 24.4729 32.8046 24.4608 32.8267L24.2711 33.1745C24.2141 33.279 24.064 33.279 24.0069 33.1745L23.8172 32.8267Z" fill="#595B58"/>
</g>
<defs>
<clipPath id="clip0_3151_153016">
<rect width="52" height="52" fill="white" transform="translate(11.5 28)"/>
</clipPath>
</defs>
</svg>
