<svg width="24" height="24" viewBox="0 0 24 24" fill="none" xmlns="http://www.w3.org/2000/svg">
<g clip-path="url(#clip0_3637_12869)">
<path d="M23.9996 12.2753C23.9996 11.4595 23.9321 10.6394 23.7881 9.83691H12.2402V14.4579H18.8532C18.5788 15.9482 17.697 17.2666 16.4059 18.1044V21.1028H20.3512C22.668 19.0127 23.9996 15.9262 23.9996 12.2753Z" fill="#4285F4"/>
<path d="M12.2414 23.9998C15.5433 23.9998 18.328 22.9372 20.3568 21.1029L16.4116 18.1046C15.3139 18.8365 13.8968 19.251 12.2459 19.251C9.05186 19.251 6.34371 17.1389 5.37201 14.2993H1.30078V17.3903C3.37913 21.4424 7.61231 23.9998 12.2414 23.9998Z" fill="#34A853"/>
<path d="M5.36712 14.2992C4.85428 12.8089 4.85428 11.1951 5.36712 9.70471V6.61377H1.30039C-0.436067 10.0045 -0.436067 13.9994 1.30039 17.3902L5.36712 14.2992Z" fill="#FBBC04"/>
<path d="M12.2414 4.7482C13.9868 4.72174 15.6738 5.3655 16.9379 6.5472L20.4333 3.12115C18.22 1.08404 15.2824 -0.0359308 12.2414 -0.000656178C7.61231 -0.000656178 3.37913 2.55676 1.30078 6.61334L5.36751 9.70429C6.33471 6.86027 9.04736 4.7482 12.2414 4.7482Z" fill="#EA4335"/>
</g>
<defs>
<clipPath id="clip0_3637_12869">
<rect width="24" height="24" fill="white"/>
</clipPath>
</defs>
</svg>
