<svg width="32" height="32" viewBox="0 0 32 32" fill="none" xmlns="http://www.w3.org/2000/svg">
<rect width="32" height="32" rx="16" fill="#0066CC" fill-opacity="0.1"/>
<path d="M7.88384 21H6.59123L10.3299 10.8182H11.6026L15.3412 21H14.0486L11.006 12.429H10.9265L7.88384 21ZM8.36112 17.0227H13.5713V18.1165H8.36112V17.0227ZM20.0692 21H16.9272V10.8182H20.2084C21.1961 10.8182 22.0413 11.022 22.7439 11.4297C23.4466 11.834 23.9852 12.4157 24.3597 13.1747C24.7342 13.9304 24.9215 14.8352 24.9215 15.8892C24.9215 16.9498 24.7326 17.8629 24.3547 18.6286C23.9769 19.3909 23.4267 19.9775 22.7042 20.3885C21.9816 20.7962 21.1033 21 20.0692 21ZM18.1601 19.9062H19.9897C20.8315 19.9062 21.5292 19.7438 22.0827 19.419C22.6362 19.0942 23.0489 18.6319 23.3206 18.032C23.5924 17.4321 23.7283 16.7178 23.7283 15.8892C23.7283 15.0672 23.5941 14.3596 23.3256 13.7663C23.0571 13.1697 22.6561 12.7124 22.1225 12.3942C21.5889 12.0727 20.9243 11.9119 20.1289 11.9119H18.1601V19.9062Z" fill="#0066CC"/>
</svg>
