<svg xmlns="http://www.w3.org/2000/svg" style="display: none">
  <symbol id="plus" viewBox="0 0 16 17" fill="none">
    <path d="M3.33337 8.5H12.6667" stroke="inherit" stroke-width="1.33333" stroke-linecap="round" stroke-linejoin="round"/>
    <path d="M8 3.8335V13.1668" stroke="inherit" stroke-width="1.33333" stroke-linecap="round" stroke-linejoin="round"/>
  </symbol>
  <symbol id="close" width="16" height="16" viewBox="0 0 16 16" fill="none" xmlns="http://www.w3.org/2000/svg">
    <path d="M12.9999 12.9999L3 3M13 3L3 13" stroke="inherit" stroke-width="1.4" stroke-linecap="round" stroke-linejoin="round"/>
  </symbol>
  <symbol id="sorting-arow" width="13" height="13" viewBox="0 0 13 13" fill="none" xmlns="http://www.w3.org/2000/svg">
<path d="M10.78 8.5L8.78003 10.5L6.78003 8.5" stroke="#64748B" stroke-linecap="round" stroke-linejoin="round"/>
<path d="M8.78003 10.5V2.5" stroke="#64748B" stroke-linecap="round" stroke-linejoin="round"/>
<path d="M1.78003 4.5L3.78003 2.5L5.78003 4.5" stroke="#64748B" stroke-linecap="round" stroke-linejoin="round"/>
<path d="M3.78003 2.5V10.5" stroke="#64748B" stroke-linecap="round" stroke-linejoin="round"/>
</symbol>
<symbol id="icon-positive" viewBox="0 0 24 24">
    <path fill="currentColor" d="M12 4l-8 8h6v8h4v-8h6z"/>
  </symbol>
  
  <symbol id="icon-negative" viewBox="0 0 24 24">
    <path fill="currentColor" d="M12 20l8-8h-6V4h-4v8H4z"/>
  </symbol>
  <symbol id="icon-facebook" viewBox="0 0 46 46" fill="none">
  <g clip-path="url(#clip0_698_1825)">
    <path d="M46 23C46 10.2975 35.7025 0 23 0C10.2975 0 0 10.2975 0 23C0 34.4799 8.41081 43.9952 19.4062 45.7206V29.6484H13.5664V23H19.4062V17.9328C19.4062 12.1684 22.8401 8.98437 28.0938 8.98437C30.6101 8.98437 33.2422 9.43359 33.2422 9.43359V15.0937H30.342C27.4848 15.0937 26.5938 16.8667 26.5938 18.6857V23H32.9727L31.9529 29.6484H26.5938V45.7206C37.5892 43.9952 46 34.4801 46 23Z" fill="#0066CC"/>
    <path d="M31.9529 29.6484L32.9727 23H26.5938V18.6857C26.5938 16.8665 27.4848 15.0938 30.342 15.0938H33.2422V9.43359C33.2422 9.43359 30.6101 8.98438 28.0936 8.98438C22.8401 8.98438 19.4062 12.1684 19.4062 17.9328V23H13.5664V29.6484H19.4062V45.7206C20.5951 45.9069 21.7966 46.0003 23 46C24.2034 46.0003 25.4049 45.9069 26.5938 45.7206V29.6484H31.9529Z" fill="#FAFAFA"/>
  </g>
  <defs>
    <clipPath id="clip0_698_1825">
      <rect width="46" height="46" fill="white"/>
    </clipPath>
  </defs>
</symbol>
<symbol id="icon-facebook_button">
<svg width="16" height="16" viewBox="0 0 16 16" fill="none" xmlns="http://www.w3.org/2000/svg">
<path d="M10.6068 8.69903L10.9178 6.54369H8.9726V5.14505C8.9726 4.5553 9.24433 3.98058 10.1156 3.98058H11V2.14563C11 2.14563 10.1974 2 9.42997 2C7.82795 2 6.78082 3.03223 6.78082 4.90097V6.54369H5V8.69903H6.78082V13.9094C7.14335 13.9698 7.50976 14.0001 7.87671 14C8.24367 14.0001 8.61007 13.9698 8.9726 13.9094V8.69903H10.6068Z" fill="#FAFAFA"/>
</svg>
</symbol>
<symbol id="token_key" viewBox="0 0 20 20" fill="none">
    <path d="M12.2713 7.3698L13.6805 8.77898C13.795 8.89124 13.949 8.95412 14.1094 8.95412C14.2698 8.95412 14.4237 8.89124 14.5383 8.77898L15.8249 7.49233C15.9372 7.3778 16.0001 7.22382 16.0001 7.06345C16.0001 6.90308 15.9372 6.7491 15.8249 6.63457L14.4157 5.22538M15.6411 4L9.75928 9.88182" stroke="#3E4655" stroke-linecap="round" stroke-linejoin="round"/>
    <path d="M7.3698 15.64C9.23088 15.64 10.7396 14.1313 10.7396 12.2702C10.7396 10.4091 9.23088 8.90039 7.3698 8.90039C5.50871 8.90039 4 10.4091 4 12.2702C4 14.1313 5.50871 15.64 7.3698 15.64Z" stroke="#3E4655" stroke-linecap="round" stroke-linejoin="round"/>
  </symbol>
  <symbol id="red_clock" viewBox="0 0 12 12" xmlns="http://www.w3.org/2000/svg" fill="currentColor">
  <path d="M6 11C8.76142 11 11 8.76142 11 6C11 3.23858 8.76142 1 6 1C3.23858 1 1 3.23858 1 6C1 8.76142 3.23858 11 6 11Z"
        stroke="currentColor" stroke-linecap="round" stroke-linejoin="round"/>
  <path d="M6 3V6L8 7"
        stroke="currentColor" stroke-linecap="round" stroke-linejoin="round"/>
</symbol>
  <symbol id="calendar" viewBox="0 0 16 17" fill="none">
  <path d="M5.3335 1.83398V4.50065" stroke="currentColor" stroke-width="1.33333" stroke-linecap="round" stroke-linejoin="round"/>
  <path d="M10.6665 1.83398V4.50065" stroke="currentColor" stroke-width="1.33333" stroke-linecap="round" stroke-linejoin="round"/>
  <path d="M12.6667 3.16602H3.33333C2.59695 3.16602 2 3.76297 2 4.49935V13.8327C2 14.5691 2.59695 15.166 3.33333 15.166H12.6667C13.403 15.166 14 14.5691 14 13.8327V4.49935C14 3.76297 13.403 3.16602 12.6667 3.16602Z" stroke="currentColor" stroke-width="1.33333" stroke-linecap="round" stroke-linejoin="round"/>
  <path d="M2 7.16602H14" stroke="currentColor" stroke-width="1.33333" stroke-linecap="round" stroke-linejoin="round"/>
</symbol>
<symbol id="chevron-down" viewBox="0 0 16 17" fill="none">
  <path d="M4 6.5L8 10.5L12 6.5" stroke="#09090B" stroke-width="1.33333" stroke-linecap="round" stroke-linejoin="round"/>
</symbol>
<symbol id="chevron-up" viewBox="0 0 16 17" fill="none">
  <path d="M4 10.5L8 6.5L12 10.5" stroke="#09090B" stroke-width="1.33333" stroke-linecap="round" stroke-linejoin="round"/>
</symbol>
<symbol id="arrow-left-small" viewBox="0 0 7 10" fill="none">
  <path fill-rule="evenodd" clip-rule="evenodd" d="M6.06042 1.06066L4.99976 0L-0.000244141 5L4.99976 10L6.06042 8.93934L2.12108 5L6.06042 1.06066Z" fill="currentColor" fill-opacity="0.25"/>
</symbol>
<symbol id="arrow-right-small" viewBox="0 0 7 10" fill="none">
  <path fill-rule="evenodd" clip-rule="evenodd" d="M0.939575 1.06066L2.00024 0L7.00024 5L2.00024 10L0.939575 8.93934L4.87891 5L0.939575 1.06066Z" fill="currentColor" fill-opacity="0.25"/>
</symbol>
<symbol id="icon-timeline" viewBox="0 0 16 17" fill="none">
  <g clip-path="url(#clip0_timeline)">
    <path d="M13.9999 3.16602H9.33325" stroke="#09090B" stroke-width="1.33333" stroke-linecap="round" stroke-linejoin="round"/>
    <path d="M6.66667 3.16602H2" stroke="#09090B" stroke-width="1.33333" stroke-linecap="round" stroke-linejoin="round"/>
    <path d="M14 8.5H8" stroke="#09090B" stroke-width="1.33333" stroke-linecap="round" stroke-linejoin="round"/>
    <path d="M5.33333 8.5H2" stroke="#09090B" stroke-width="1.33333" stroke-linecap="round" stroke-linejoin="round"/>
    <path d="M14.0001 13.834H10.6667" stroke="#09090B" stroke-width="1.33333" stroke-linecap="round" stroke-linejoin="round"/>
    <path d="M8 13.834H2" stroke="#09090B" stroke-width="1.33333" stroke-linecap="round" stroke-linejoin="round"/>
    <path d="M9.33325 1.83398V4.50065" stroke="#09090B" stroke-width="1.33333" stroke-linecap="round" stroke-linejoin="round"/>
    <path d="M5.33325 7.16602V9.83268" stroke="#09090B" stroke-width="1.33333" stroke-linecap="round" stroke-linejoin="round"/>
    <path d="M10.6667 12.5V15.1667" stroke="#09090B" stroke-width="1.33333" stroke-linecap="round" stroke-linejoin="round"/>
  </g>
  <defs>
    <clipPath id="clip0_timeline">
      <rect width="16" height="16" fill="white" transform="translate(0 0.5)"/>
    </clipPath>
  </defs>
</symbol>
<symbol id="icon-wallet" viewBox="0 0 20 20" fill="none">
  <path d="M15.4444 4H4.55556C4.143 4 3.74733 4.15804 3.45561 4.43934C3.16389 4.72064 3 5.10218 3 5.5V5.5C3 5.89782 3.16389 6.27936 3.45561 6.56066C3.74733 6.84196 4.143 7 4.55556 7H17" stroke="#09090B" stroke-width="1.33" stroke-linecap="round" stroke-linejoin="round"/>
  <path d="M17 7.42857V15.2857C17 15.4752 16.9181 15.6568 16.7722 15.7908C16.6263 15.9247 16.4285 16 16.2222 16H3.77778C3.5715 16 3.37367 15.9247 3.22781 15.7908C3.08194 15.6568 3 15.4752 3 15.2857V6C3 6.37888 3.16389 6.74224 3.45561 7.01015C3.74733 7.27806 4.143 7.42857 4.55556 7.42857H17ZM17 13.1429H13.1111C12.9048 13.1429 12.707 13.0676 12.5611 12.9336C12.4153 12.7997 12.3333 12.618 12.3333 12.4286V11C12.3333 10.8106 12.4153 10.6289 12.5611 10.4949C12.707 10.361 12.9048 10.2857 13.1111 10.2857H17V13.1429Z" stroke="#09090B" stroke-width="1.33" stroke-linecap="round" stroke-linejoin="round"/>
</symbol>
<symbol id="icon-impressions" viewBox="0 0 20 20" fill="none">
  <path d="M16 5L10.9444 10.8333L8.77778 8.33333L3 15" stroke="#09090B" stroke-width="1.33" stroke-linecap="round" stroke-linejoin="round"/>
  <path d="M16 9V5H12" stroke="#09090B" stroke-width="1.33" stroke-linecap="round" stroke-linejoin="round"/>
</symbol>
<symbol id="icon-ctr" viewBox="0 0 20 20" fill="none">
<path d="M12.7775 12.7773L11.0885 17L7.71051 7.70998L17 11.0882L12.7775 12.7773ZM12.7775 12.7773L17 17M6.18027 2L6.83645 4.44665M4.44736 6.83588L2 6.17966M11.8908 3.52947L10.0988 5.3216M5.32142 10.0984L3.53108 11.8905" stroke="#09090B" stroke-width="1.33" stroke-linecap="round" stroke-linejoin="round"/>
</symbol>
<symbol id="icon-cpc" viewBox="0 0 20 20" fill="none" >
<path d="M10 18C14.4183 18 18 14.4183 18 10C18 5.58172 14.4183 2 10 2C5.58172 2 2 5.58172 2 10C2 14.4183 5.58172 18 10 18Z" stroke="#09090B" stroke-width="1.33"/>
<path d="M10.0001 5.19971V14.7997M12.4001 7.99971C12.4001 6.89571 11.3257 5.99971 10.0001 5.99971C8.6745 5.99971 7.6001 6.89571 7.6001 7.99971C7.6001 9.10371 8.6745 9.99971 10.0001 9.99971C11.3257 9.99971 12.4001 10.8957 12.4001 11.9997C12.4001 13.1037 11.3257 13.9997 10.0001 13.9997C8.6745 13.9997 7.6001 13.1037 7.6001 11.9997" stroke="#09090B" stroke-width="1.33" stroke-linecap="round"/>
</symbol>
<symbol id="icon-cpm" viewBox="0 0 20 20" fill="none" >
<path d="M13.9167 3H5.41667C4.63426 3 4 3.63426 4 4.41667V15.75C4 16.5324 4.63426 17.1667 5.41667 17.1667H13.9167C14.6991 17.1667 15.3333 16.5324 15.3333 15.75V4.41667C15.3333 3.63426 14.6991 3 13.9167 3Z" stroke="#09090B" stroke-width="1.33" stroke-linecap="round" stroke-linejoin="round"/>
<path d="M6.83301 5.8335H12.4997" stroke="#09090B" stroke-width="1.33" stroke-linecap="round" stroke-linejoin="round"/>
<path d="M12.5 11.5V14.3333" stroke="#09090B" stroke-width="1.33" stroke-linecap="round" stroke-linejoin="round"/>
<path d="M12.5 8.66699H12.5075" stroke="#09090B" stroke-width="1.33" stroke-linecap="round" stroke-linejoin="round"/>
<path d="M9.6665 8.66699H9.674" stroke="#09090B" stroke-width="1.33" stroke-linecap="round" stroke-linejoin="round"/>
<path d="M6.83301 8.66699H6.84051" stroke="#09090B" stroke-width="1.33" stroke-linecap="round" stroke-linejoin="round"/>
<path d="M9.6665 11.5H9.674" stroke="#09090B" stroke-width="1.33" stroke-linecap="round" stroke-linejoin="round"/>
<path d="M6.83301 11.5H6.84051" stroke="#09090B" stroke-width="1.33" stroke-linecap="round" stroke-linejoin="round"/>
<path d="M9.6665 14.3335H9.674" stroke="#09090B" stroke-width="1.33" stroke-linecap="round" stroke-linejoin="round"/>
<path d="M6.83301 14.3335H6.84051" stroke="#09090B" stroke-width="1.33" stroke-linecap="round" stroke-linejoin="round"/>
</symbol>
<symbol id="icon-profit" viewBox="0 0 20 20" fill="none" >
<path d="M13.6667 7V12M2 15.3333H17H2ZM3.66667 2V17V2ZM10.3333 8.66667V12V8.66667ZM7 5.33333V12V5.33333Z" stroke="#09090B" stroke-width="1.33" stroke-linecap="round" stroke-linejoin="round"/>
</symbol>
<symbol id="icon-warning" viewBox="0 0 16 16" fill="none" xmlns="http://www.w3.org/2000/svg">
<path d="M12.6667 2H3.33333C2.59695 2 2 2.59695 2 3.33333V12.6667C2 13.403 2.59695 14 3.33333 14H12.6667C13.403 14 14 13.403 14 12.6667V3.33333C14 2.59695 13.403 2 12.6667 2Z" stroke="#D97706" stroke-width="1.33333" stroke-linecap="round" stroke-linejoin="round"/>
<path d="M10 6L6 10" stroke="#D97706" stroke-width="1.33333" stroke-linecap="round" stroke-linejoin="round"/>
<path d="M6 6L10 10" stroke="#D97706" stroke-width="1.33333" stroke-linecap="round" stroke-linejoin="round"/>
</symbol>
<symbol id="icon-success" width="16" height="16" viewBox="0 0 16 16" fill="none" xmlns="http://www.w3.org/2000/svg">
<path d="M14 7V12.6667C14 13.0203 13.8595 13.3594 13.6095 13.6095C13.3594 13.8595 13.0203 14 12.6667 14H3.33333C2.97971 14 2.64057 13.8595 2.39052 13.6095C2.14048 13.3594 2 13.0203 2 12.6667V3.33333C2 2.97971 2.14048 2.64057 2.39052 2.39052C2.64057 2.14048 2.97971 2 3.33333 2H11.6667" stroke="#16A34A" stroke-width="1.33333" stroke-linecap="round" stroke-linejoin="round"/>
<path d="M6 7.33317L8 9.33317L14.6667 2.6665" stroke="#16A34A" stroke-width="1.33333" stroke-linecap="round" stroke-linejoin="round"/>
</symbol>
<symbol id="icon-error" width="16" height="16" viewBox="0 0 16 16" fill="none" xmlns="http://www.w3.org/2000/svg">
<path d="M14.4866 12L9.15329 2.66665C9.037 2.46146 8.86836 2.29078 8.66457 2.17203C8.46078 2.05329 8.22915 1.99072 7.99329 1.99072C7.75743 1.99072 7.52579 2.05329 7.322 2.17203C7.11822 2.29078 6.94958 2.46146 6.83329 2.66665L1.49995 12C1.38241 12.2036 1.32077 12.4346 1.32129 12.6697C1.32181 12.9047 1.38447 13.1355 1.50292 13.3385C1.62136 13.5416 1.79138 13.7097 1.99575 13.8259C2.20011 13.942 2.43156 14.0021 2.66662 14H13.3333C13.5672 13.9997 13.797 13.938 13.9995 13.8208C14.202 13.7037 14.3701 13.5354 14.487 13.3327C14.6038 13.1301 14.6653 12.9002 14.6653 12.6663C14.6652 12.4324 14.6036 12.2026 14.4866 12Z" stroke="#DC2626" stroke-width="1.66667" stroke-linecap="round" stroke-linejoin="round"/>
<path d="M8 6V8.66667" stroke="#DC2626" stroke-width="1.66667" stroke-linecap="round" stroke-linejoin="round"/>
<path d="M8 11.3335H8.00667" stroke="#DC2626" stroke-width="1.66667" stroke-linecap="round" stroke-linejoin="round"/>
</symbol>
<symbol id="icon-big-success" width="36" height="36" viewBox="0 0 36 36" fill="none" xmlns="http://www.w3.org/2000/svg">
<rect width="36" height="36" rx="18" fill="#D3FFE3"/>
<path d="M24.6667 13L15.5 22.1667L11.3334 18" stroke="#16A34A" stroke-width="1.66667" stroke-linecap="round" stroke-linejoin="round"/>
</symbol>
<symbol id="icon-big-warning" width="36" height="36" viewBox="0 0 36 36" fill="none" xmlns="http://www.w3.org/2000/svg">
<rect width="36" height="36" rx="18" fill="#FEF3C7"/>
<path d="M18 26.3332C22.6023 26.3332 26.3333 22.6022 26.3333 17.9998C26.3333 13.3975 22.6023 9.6665 18 9.6665C13.3976 9.6665 9.66663 13.3975 9.66663 17.9998C9.66663 22.6022 13.3976 26.3332 18 26.3332Z" stroke="#D97706" stroke-width="1.66667" stroke-linecap="round" stroke-linejoin="round"/>
<path d="M18 14.6665V17.9998" stroke="#D97706" stroke-width="1.66667" stroke-linecap="round" stroke-linejoin="round"/>
<path d="M18 21.3335H18.0083" stroke="#D97706" stroke-width="1.66667" stroke-linecap="round" stroke-linejoin="round"/>
</symbol>
<symbol id="icon-big-gray" width="36" height="36" viewBox="0 0 36 36" fill="none" xmlns="http://www.w3.org/2000/svg">
<rect width="36" height="36" rx="18" fill="#D1D1D1"/>
<path d="M17.3333 22.6667C20.2789 22.6667 22.6667 20.2789 22.6667 17.3333C22.6667 14.3878 20.2789 12 17.3333 12C14.3878 12 12 14.3878 12 17.3333C12 20.2789 14.3878 22.6667 17.3333 22.6667Z" stroke="#3E4655" stroke-width="1.7" stroke-linecap="round" stroke-linejoin="round"/>
<path d="M24 24L21.1333 21.1333" stroke="#3E4655" stroke-width="1.7" stroke-linecap="round" stroke-linejoin="round"/>
</symbol>
<symbol id="icon-big-error" width="36" height="36" viewBox="0 0 36 36" fill="none" xmlns="http://www.w3.org/2000/svg">
<rect width="36" height="36" rx="18" fill="#FFD9D9"/>
<path d="M26.1083 22.9999L19.4416 11.3332C19.2962 11.0767 19.0854 10.8634 18.8307 10.7149C18.576 10.5665 18.2864 10.4883 17.9916 10.4883C17.6968 10.4883 17.4072 10.5665 17.1525 10.7149C16.8978 10.8634 16.687 11.0767 16.5416 11.3332L9.87494 22.9999C9.72801 23.2543 9.65096 23.5431 9.65162 23.837C9.65227 24.1308 9.73059 24.4192 9.87865 24.673C10.0267 24.9269 10.2392 25.137 10.4947 25.2822C10.7501 25.4274 11.0394 25.5025 11.3333 25.4999H24.6666C24.959 25.4996 25.2462 25.4223 25.4993 25.2759C25.7525 25.1295 25.9626 24.9191 26.1087 24.6658C26.2548 24.4125 26.3316 24.1252 26.3316 23.8328C26.3315 23.5404 26.2545 23.2531 26.1083 22.9999Z" stroke="#DC2626" stroke-width="1.66667" stroke-linecap="round" stroke-linejoin="round"/>
<path d="M18 15.5V18.8333" stroke="#DC2626" stroke-width="1.66667" stroke-linecap="round" stroke-linejoin="round"/>
<path d="M18 22.1665H18.0083" stroke="#DC2626" stroke-width="1.66667" stroke-linecap="round" stroke-linejoin="round"/>
</symbol>

</svg>



