<svg xmlns="http://www.w3.org/2000/svg" style="display: none">
  <symbol id="plus" viewBox="0 0 16 17" fill="none">
    <path d="M3.33337 8.5H12.6667" stroke="inherit" stroke-width="1.33333" stroke-linecap="round" stroke-linejoin="round"/>
    <path d="M8 3.8335V13.1668" stroke="inherit" stroke-width="1.33333" stroke-linecap="round" stroke-linejoin="round"/>
  </symbol>
  <symbol id="close" width="16" height="16" viewBox="0 0 16 16" fill="none" xmlns="http://www.w3.org/2000/svg">
    <path d="M12.9999 12.9999L3 3M13 3L3 13" stroke="inherit" stroke-width="1.4" stroke-linecap="round" stroke-linejoin="round"/>
  </symbol>
  <symbol id="sorting-arow" width="13" height="13" viewBox="0 0 13 13" fill="none" xmlns="http://www.w3.org/2000/svg">
<path d="M10.78 8.5L8.78003 10.5L6.78003 8.5" stroke="#64748B" stroke-linecap="round" stroke-linejoin="round"/>
<path d="M8.78003 10.5V2.5" stroke="#64748B" stroke-linecap="round" stroke-linejoin="round"/>
<path d="M1.78003 4.5L3.78003 2.5L5.78003 4.5" stroke="#64748B" stroke-linecap="round" stroke-linejoin="round"/>
<path d="M3.78003 2.5V10.5" stroke="#64748B" stroke-linecap="round" stroke-linejoin="round"/>
</symbol>
<symbol id="icon-positive" viewBox="0 0 24 24">
    <path fill="currentColor" d="M12 4l-8 8h6v8h4v-8h6z"/>
  </symbol>
  
  <symbol id="icon-negative" viewBox="0 0 24 24">
    <path fill="currentColor" d="M12 20l8-8h-6V4h-4v8H4z"/>
  </symbol>
  <symbol id="icon-facebook" viewBox="0 0 46 46" fill="none">
  <g clip-path="url(#clip0_698_1825)">
    <path d="M46 23C46 10.2975 35.7025 0 23 0C10.2975 0 0 10.2975 0 23C0 34.4799 8.41081 43.9952 19.4062 45.7206V29.6484H13.5664V23H19.4062V17.9328C19.4062 12.1684 22.8401 8.98437 28.0938 8.98437C30.6101 8.98437 33.2422 9.43359 33.2422 9.43359V15.0937H30.342C27.4848 15.0937 26.5938 16.8667 26.5938 18.6857V23H32.9727L31.9529 29.6484H26.5938V45.7206C37.5892 43.9952 46 34.4801 46 23Z" fill="#0066CC"/>
    <path d="M31.9529 29.6484L32.9727 23H26.5938V18.6857C26.5938 16.8665 27.4848 15.0938 30.342 15.0938H33.2422V9.43359C33.2422 9.43359 30.6101 8.98438 28.0936 8.98438C22.8401 8.98438 19.4062 12.1684 19.4062 17.9328V23H13.5664V29.6484H19.4062V45.7206C20.5951 45.9069 21.7966 46.0003 23 46C24.2034 46.0003 25.4049 45.9069 26.5938 45.7206V29.6484H31.9529Z" fill="#FAFAFA"/>
  </g>
  <defs>
    <clipPath id="clip0_698_1825">
      <rect width="46" height="46" fill="white"/>
    </clipPath>
  </defs>
</symbol>
<symbol id="icon-facebook_button">
<svg width="16" height="16" viewBox="0 0 16 16" fill="none" xmlns="http://www.w3.org/2000/svg">
<path d="M10.6068 8.69903L10.9178 6.54369H8.9726V5.14505C8.9726 4.5553 9.24433 3.98058 10.1156 3.98058H11V2.14563C11 2.14563 10.1974 2 9.42997 2C7.82795 2 6.78082 3.03223 6.78082 4.90097V6.54369H5V8.69903H6.78082V13.9094C7.14335 13.9698 7.50976 14.0001 7.87671 14C8.24367 14.0001 8.61007 13.9698 8.9726 13.9094V8.69903H10.6068Z" fill="#FAFAFA"/>
</svg>
</symbol>
<symbol id="token_key" viewBox="0 0 20 20" fill="none">
    <path d="M12.2713 7.3698L13.6805 8.77898C13.795 8.89124 13.949 8.95412 14.1094 8.95412C14.2698 8.95412 14.4237 8.89124 14.5383 8.77898L15.8249 7.49233C15.9372 7.3778 16.0001 7.22382 16.0001 7.06345C16.0001 6.90308 15.9372 6.7491 15.8249 6.63457L14.4157 5.22538M15.6411 4L9.75928 9.88182" stroke="#3E4655" stroke-linecap="round" stroke-linejoin="round"/>
    <path d="M7.3698 15.64C9.23088 15.64 10.7396 14.1313 10.7396 12.2702C10.7396 10.4091 9.23088 8.90039 7.3698 8.90039C5.50871 8.90039 4 10.4091 4 12.2702C4 14.1313 5.50871 15.64 7.3698 15.64Z" stroke="#3E4655" stroke-linecap="round" stroke-linejoin="round"/>
  </symbol>
  <symbol id="red_clock" viewBox="0 0 12 12" xmlns="http://www.w3.org/2000/svg" fill="currentColor">
  <path d="M6 11C8.76142 11 11 8.76142 11 6C11 3.23858 8.76142 1 6 1C3.23858 1 1 3.23858 1 6C1 8.76142 3.23858 11 6 11Z"
        stroke="currentColor" stroke-linecap="round" stroke-linejoin="round"/>
  <path d="M6 3V6L8 7"
        stroke="currentColor" stroke-linecap="round" stroke-linejoin="round"/>
</symbol>
  <symbol id="calendar" viewBox="0 0 16 17" fill="none">
  <path d="M5.3335 1.83398V4.50065" stroke="currentColor" stroke-width="1.33333" stroke-linecap="round" stroke-linejoin="round"/>
  <path d="M10.6665 1.83398V4.50065" stroke="currentColor" stroke-width="1.33333" stroke-linecap="round" stroke-linejoin="round"/>
  <path d="M12.6667 3.16602H3.33333C2.59695 3.16602 2 3.76297 2 4.49935V13.8327C2 14.5691 2.59695 15.166 3.33333 15.166H12.6667C13.403 15.166 14 14.5691 14 13.8327V4.49935C14 3.76297 13.403 3.16602 12.6667 3.16602Z" stroke="currentColor" stroke-width="1.33333" stroke-linecap="round" stroke-linejoin="round"/>
  <path d="M2 7.16602H14" stroke="currentColor" stroke-width="1.33333" stroke-linecap="round" stroke-linejoin="round"/>
</symbol>
<symbol id="chevron-down" viewBox="0 0 16 17" fill="none">
  <path d="M4 6.5L8 10.5L12 6.5" stroke="#09090B" stroke-width="1.33333" stroke-linecap="round" stroke-linejoin="round"/>
</symbol>
<symbol id="chevron-up" viewBox="0 0 16 17" fill="none">
  <path d="M4 10.5L8 6.5L12 10.5" stroke="#09090B" stroke-width="1.33333" stroke-linecap="round" stroke-linejoin="round"/>
</symbol>
<symbol id="arrow-left-small" viewBox="0 0 7 10" fill="none">
  <path fill-rule="evenodd" clip-rule="evenodd" d="M6.06042 1.06066L4.99976 0L-0.000244141 5L4.99976 10L6.06042 8.93934L2.12108 5L6.06042 1.06066Z" fill="currentColor" fill-opacity="0.25"/>
</symbol>
<symbol id="arrow-right-small" viewBox="0 0 7 10" fill="none">
  <path fill-rule="evenodd" clip-rule="evenodd" d="M0.939575 1.06066L2.00024 0L7.00024 5L2.00024 10L0.939575 8.93934L4.87891 5L0.939575 1.06066Z" fill="currentColor" fill-opacity="0.25"/>
</symbol>

</svg>



